<?xml version="1.0" encoding="UTF-8" standalone="no"?><svg xmlns="http://www.w3.org/2000/svg" xmlns:xlink="http://www.w3.org/1999/xlink" contentScriptType="application/ecmascript" contentStyleType="text/css" height="173px" preserveAspectRatio="none" style="width:871px;height:173px;" version="1.1" viewBox="0 0 871 173" width="871px" zoomAndPan="magnify"><defs/><g><line style="stroke: #000000; stroke-width: 1.7;" x1="10" x2="10" y1="10" y2="142.5938"/><line style="stroke: #000000; stroke-width: 1.7;" x1="859" x2="859" y1="10" y2="142.5938"/><line style="stroke: #AAAAAA; stroke-width: 0.5; stroke-dasharray: 3.0,5.0;" x1="54" x2="54" y1="10" y2="142.5938"/><line style="stroke: #AAAAAA; stroke-width: 0.5; stroke-dasharray: 3.0,5.0;" x1="104" x2="104" y1="10" y2="142.5938"/><line style="stroke: #AAAAAA; stroke-width: 0.5; stroke-dasharray: 3.0,5.0;" x1="154" x2="154" y1="10" y2="142.5938"/><line style="stroke: #AAAAAA; stroke-width: 0.5; stroke-dasharray: 3.0,5.0;" x1="204" x2="204" y1="10" y2="142.5938"/><line style="stroke: #AAAAAA; stroke-width: 0.5; stroke-dasharray: 3.0,5.0;" x1="254" x2="254" y1="10" y2="142.5938"/><line style="stroke: #AAAAAA; stroke-width: 0.5; stroke-dasharray: 3.0,5.0;" x1="304" x2="304" y1="10" y2="142.5938"/><line style="stroke: #AAAAAA; stroke-width: 0.5; stroke-dasharray: 3.0,5.0;" x1="354" x2="354" y1="10" y2="142.5938"/><line style="stroke: #AAAAAA; stroke-width: 0.5; stroke-dasharray: 3.0,5.0;" x1="404" x2="404" y1="10" y2="142.5938"/><line style="stroke: #AAAAAA; stroke-width: 0.5; stroke-dasharray: 3.0,5.0;" x1="454" x2="454" y1="10" y2="142.5938"/><line style="stroke: #AAAAAA; stroke-width: 0.5; stroke-dasharray: 3.0,5.0;" x1="504" x2="504" y1="10" y2="142.5938"/><line style="stroke: #AAAAAA; stroke-width: 0.5; stroke-dasharray: 3.0,5.0;" x1="554" x2="554" y1="10" y2="142.5938"/><line style="stroke: #AAAAAA; stroke-width: 0.5; stroke-dasharray: 3.0,5.0;" x1="604" x2="604" y1="10" y2="142.5938"/><line style="stroke: #AAAAAA; stroke-width: 0.5; stroke-dasharray: 3.0,5.0;" x1="654" x2="654" y1="10" y2="142.5938"/><line style="stroke: #AAAAAA; stroke-width: 0.5; stroke-dasharray: 3.0,5.0;" x1="704" x2="704" y1="10" y2="142.5938"/><line style="stroke: #AAAAAA; stroke-width: 0.5; stroke-dasharray: 3.0,5.0;" x1="754" x2="754" y1="10" y2="142.5938"/><line style="stroke: #AAAAAA; stroke-width: 0.5; stroke-dasharray: 3.0,5.0;" x1="804" x2="804" y1="10" y2="142.5938"/><line style="stroke: #AAAAAA; stroke-width: 0.5; stroke-dasharray: 3.0,5.0;" x1="854" x2="854" y1="10" y2="142.5938"/><line style="stroke: #000000; stroke-width: 1.7;" x1="10" x2="859" y1="10" y2="10"/><text fill="#000000" font-family="sans-serif" font-size="12" lengthAdjust="spacingAndGlyphs" textLength="31" x="15" y="39.8027">UART</text><line style="stroke: #038048; stroke-width: 1.5;" x1="54" x2="54" y1="53.2969" y2="53.2969"/><line style="stroke: #038048; stroke-width: 1.5;" x1="54" x2="54" y1="39.2969" y2="53.2969"/><line style="stroke: #038048; stroke-width: 1.5;" x1="54" x2="104" y1="39.2969" y2="39.2969"/><line style="stroke: #038048; stroke-width: 1.5;" x1="104" x2="104" y1="39.2969" y2="53.2969"/><line style="stroke: #038048; stroke-width: 1.5;" x1="104" x2="129" y1="53.2969" y2="53.2969"/><line style="stroke: #038048; stroke-width: 1.5;" x1="129" x2="129" y1="39.2969" y2="53.2969"/><line style="stroke: #038048; stroke-width: 1.5;" x1="129" x2="154" y1="39.2969" y2="39.2969"/><line style="stroke: #038048; stroke-width: 1.5;" x1="154" x2="154" y1="39.2969" y2="53.2969"/><line style="stroke: #038048; stroke-width: 1.5;" x1="154" x2="179" y1="53.2969" y2="53.2969"/><line style="stroke: #038048; stroke-width: 1.5;" x1="179" x2="204" y1="53.2969" y2="53.2969"/><line style="stroke: #038048; stroke-width: 1.5;" x1="204" x2="204" y1="39.2969" y2="53.2969"/><line style="stroke: #038048; stroke-width: 1.5;" x1="204" x2="229" y1="39.2969" y2="39.2969"/><line style="stroke: #038048; stroke-width: 1.5;" x1="229" x2="229" y1="39.2969" y2="53.2969"/><line style="stroke: #038048; stroke-width: 1.5;" x1="229" x2="254" y1="53.2969" y2="53.2969"/><line style="stroke: #038048; stroke-width: 1.5;" x1="254" x2="254" y1="39.2969" y2="53.2969"/><line style="stroke: #038048; stroke-width: 1.5;" x1="254" x2="279" y1="39.2969" y2="39.2969"/><line style="stroke: #038048; stroke-width: 1.5;" x1="279" x2="279" y1="39.2969" y2="53.2969"/><line style="stroke: #038048; stroke-width: 1.5;" x1="279" x2="304" y1="53.2969" y2="53.2969"/><line style="stroke: #038048; stroke-width: 1.5;" x1="304" x2="304" y1="39.2969" y2="53.2969"/><line style="stroke: #038048; stroke-width: 1.5;" x1="304" x2="329" y1="39.2969" y2="39.2969"/><line style="stroke: #038048; stroke-width: 1.5;" x1="329" x2="579" y1="39.2969" y2="39.2969"/><line style="stroke: #038048; stroke-width: 1.5;" x1="579" x2="579" y1="39.2969" y2="53.2969"/><line style="stroke: #038048; stroke-width: 1.5;" x1="579" x2="604" y1="53.2969" y2="53.2969"/><line style="stroke: #038048; stroke-width: 1.5;" x1="604" x2="629" y1="53.2969" y2="53.2969"/><line style="stroke: #038048; stroke-width: 1.5;" x1="629" x2="629" y1="39.2969" y2="53.2969"/><line style="stroke: #038048; stroke-width: 1.5;" x1="629" x2="654" y1="39.2969" y2="39.2969"/><line style="stroke: #038048; stroke-width: 1.5;" x1="654" x2="654" y1="39.2969" y2="53.2969"/><line style="stroke: #038048; stroke-width: 1.5;" x1="654" x2="679" y1="53.2969" y2="53.2969"/><line style="stroke: #038048; stroke-width: 1.5;" x1="679" x2="679" y1="39.2969" y2="53.2969"/><line style="stroke: #038048; stroke-width: 1.5;" x1="679" x2="704" y1="39.2969" y2="39.2969"/><line style="stroke: #038048; stroke-width: 1.5;" x1="704" x2="729" y1="39.2969" y2="39.2969"/><line style="stroke: #038048; stroke-width: 1.5;" x1="729" x2="729" y1="39.2969" y2="53.2969"/><line style="stroke: #038048; stroke-width: 1.5;" x1="729" x2="754" y1="53.2969" y2="53.2969"/><line style="stroke: #038048; stroke-width: 1.5;" x1="754" x2="779" y1="53.2969" y2="53.2969"/><line style="stroke: #038048; stroke-width: 1.5;" x1="779" x2="779" y1="39.2969" y2="53.2969"/><line style="stroke: #038048; stroke-width: 1.5;" x1="779" x2="804" y1="39.2969" y2="39.2969"/><line style="stroke: #038048; stroke-width: 1.5;" x1="804" x2="854" y1="39.2969" y2="39.2969"/><line style="stroke: #FF0000; stroke-width: 1.5;" x1="104" x2="129" y1="31.2969" y2="31.2969"/><polygon fill="#FF0000" points="111.5175,28.5607,111.5175,34.033,104,31.2969" style="stroke: #FF0000; stroke-width: 1.5;"/><polygon fill="#FF0000" points="121.4825,34.033,121.4825,28.5607,129,31.2969" style="stroke: #FF0000; stroke-width: 1.5;"/><text fill="#000000" font-family="Serif" font-size="14" lengthAdjust="spacingAndGlyphs" textLength="52" x="90.5" y="22.9951">START</text><line style="stroke: #FF0000; stroke-width: 1.5;" x1="329" x2="354" y1="31.2969" y2="31.2969"/><polygon fill="#FF0000" points="336.5175,28.5607,336.5175,34.033,329,31.2969" style="stroke: #FF0000; stroke-width: 1.5;"/><polygon fill="#FF0000" points="346.4825,34.033,346.4825,28.5607,354,31.2969" style="stroke: #FF0000; stroke-width: 1.5;"/><text fill="#000000" font-family="Serif" font-size="14" lengthAdjust="spacingAndGlyphs" textLength="41" x="321" y="22.9951">STOP</text><line style="stroke: #FF0000; stroke-width: 1.5;" x1="134" x2="324" y1="31.2969" y2="31.2969"/><polygon fill="#FF0000" points="141.5175,28.5607,141.5175,34.033,134,31.2969" style="stroke: #FF0000; stroke-width: 1.5;"/><polygon fill="#FF0000" points="316.4825,34.033,316.4825,28.5607,324,31.2969" style="stroke: #FF0000; stroke-width: 1.5;"/><text fill="#000000" font-family="Serif" font-size="14" lengthAdjust="spacingAndGlyphs" textLength="29" x="214.5" y="22.9951">LSb</text><line style="stroke: #FF0000; stroke-width: 1.5;" x1="579" x2="604" y1="31.2969" y2="31.2969"/><polygon fill="#FF0000" points="586.5175,28.5607,586.5175,34.033,579,31.2969" style="stroke: #FF0000; stroke-width: 1.5;"/><polygon fill="#FF0000" points="596.4825,34.033,596.4825,28.5607,604,31.2969" style="stroke: #FF0000; stroke-width: 1.5;"/><text fill="#000000" font-family="Serif" font-size="14" lengthAdjust="spacingAndGlyphs" textLength="52" x="565.5" y="22.9951">START</text><line style="stroke: #FF0000; stroke-width: 1.5;" x1="804" x2="829" y1="31.2969" y2="31.2969"/><polygon fill="#FF0000" points="811.5175,28.5607,811.5175,34.033,804,31.2969" style="stroke: #FF0000; stroke-width: 1.5;"/><polygon fill="#FF0000" points="821.4825,34.033,821.4825,28.5607,829,31.2969" style="stroke: #FF0000; stroke-width: 1.5;"/><text fill="#000000" font-family="Serif" font-size="14" lengthAdjust="spacingAndGlyphs" textLength="41" x="796" y="22.9951">STOP</text><line style="stroke: #FF0000; stroke-width: 1.5;" x1="609" x2="799" y1="31.2969" y2="31.2969"/><polygon fill="#FF0000" points="616.5175,28.5607,616.5175,34.033,609,31.2969" style="stroke: #FF0000; stroke-width: 1.5;"/><polygon fill="#FF0000" points="791.4825,34.033,791.4825,28.5607,799,31.2969" style="stroke: #FF0000; stroke-width: 1.5;"/><text fill="#000000" font-family="Serif" font-size="14" lengthAdjust="spacingAndGlyphs" textLength="33" x="687.5" y="22.9951">MSb</text><line style="stroke: #000000; stroke-width: 1.7;" x1="10" x2="859" y1="61.2969" y2="61.2969"/><text fill="#000000" font-family="sans-serif" font-size="12" lengthAdjust="spacingAndGlyphs" textLength="18" x="15" y="80.4512">INT</text><line style="stroke: #038048; stroke-width: 1.5;" x1="54" x2="104" y1="83.2969" y2="83.2969"/><line style="stroke: #038048; stroke-width: 1.5;" x1="104" x2="104" y1="69.2969" y2="83.2969"/><line style="stroke: #038048; stroke-width: 1.5;" x1="104" x2="109" y1="69.2969" y2="69.2969"/><line style="stroke: #038048; stroke-width: 1.5;" x1="109" x2="109" y1="69.2969" y2="83.2969"/><line style="stroke: #038048; stroke-width: 1.5;" x1="109" x2="154" y1="83.2969" y2="83.2969"/><line style="stroke: #038048; stroke-width: 1.5;" x1="154" x2="154" y1="69.2969" y2="83.2969"/><line style="stroke: #038048; stroke-width: 1.5;" x1="154" x2="159" y1="69.2969" y2="69.2969"/><line style="stroke: #038048; stroke-width: 1.5;" x1="159" x2="159" y1="69.2969" y2="83.2969"/><line style="stroke: #038048; stroke-width: 1.5;" x1="159" x2="204" y1="83.2969" y2="83.2969"/><line style="stroke: #038048; stroke-width: 1.5;" x1="204" x2="204" y1="69.2969" y2="83.2969"/><line style="stroke: #038048; stroke-width: 1.5;" x1="204" x2="209" y1="69.2969" y2="69.2969"/><line style="stroke: #038048; stroke-width: 1.5;" x1="209" x2="209" y1="69.2969" y2="83.2969"/><line style="stroke: #038048; stroke-width: 1.5;" x1="209" x2="254" y1="83.2969" y2="83.2969"/><line style="stroke: #038048; stroke-width: 1.5;" x1="254" x2="254" y1="69.2969" y2="83.2969"/><line style="stroke: #038048; stroke-width: 1.5;" x1="254" x2="259" y1="69.2969" y2="69.2969"/><line style="stroke: #038048; stroke-width: 1.5;" x1="259" x2="259" y1="69.2969" y2="83.2969"/><line style="stroke: #038048; stroke-width: 1.5;" x1="259" x2="304" y1="83.2969" y2="83.2969"/><line style="stroke: #038048; stroke-width: 1.5;" x1="304" x2="304" y1="69.2969" y2="83.2969"/><line style="stroke: #038048; stroke-width: 1.5;" x1="304" x2="309" y1="69.2969" y2="69.2969"/><line style="stroke: #038048; stroke-width: 1.5;" x1="309" x2="309" y1="69.2969" y2="83.2969"/><line style="stroke: #038048; stroke-width: 1.5;" x1="309" x2="579" y1="83.2969" y2="83.2969"/><line style="stroke: #038048; stroke-width: 1.5;" x1="579" x2="579" y1="69.2969" y2="83.2969"/><line style="stroke: #038048; stroke-width: 1.5;" x1="579" x2="584" y1="69.2969" y2="69.2969"/><line style="stroke: #038048; stroke-width: 1.5;" x1="584" x2="584" y1="69.2969" y2="83.2969"/><line style="stroke: #038048; stroke-width: 1.5;" x1="584" x2="629" y1="83.2969" y2="83.2969"/><line style="stroke: #038048; stroke-width: 1.5;" x1="629" x2="629" y1="69.2969" y2="83.2969"/><line style="stroke: #038048; stroke-width: 1.5;" x1="629" x2="634" y1="69.2969" y2="69.2969"/><line style="stroke: #038048; stroke-width: 1.5;" x1="634" x2="634" y1="69.2969" y2="83.2969"/><line style="stroke: #038048; stroke-width: 1.5;" x1="634" x2="679" y1="83.2969" y2="83.2969"/><line style="stroke: #038048; stroke-width: 1.5;" x1="679" x2="679" y1="69.2969" y2="83.2969"/><line style="stroke: #038048; stroke-width: 1.5;" x1="679" x2="684" y1="69.2969" y2="69.2969"/><line style="stroke: #038048; stroke-width: 1.5;" x1="684" x2="684" y1="69.2969" y2="83.2969"/><line style="stroke: #038048; stroke-width: 1.5;" x1="684" x2="729" y1="83.2969" y2="83.2969"/><line style="stroke: #038048; stroke-width: 1.5;" x1="729" x2="729" y1="69.2969" y2="83.2969"/><line style="stroke: #038048; stroke-width: 1.5;" x1="729" x2="734" y1="69.2969" y2="69.2969"/><line style="stroke: #038048; stroke-width: 1.5;" x1="734" x2="734" y1="69.2969" y2="83.2969"/><line style="stroke: #038048; stroke-width: 1.5;" x1="734" x2="779" y1="83.2969" y2="83.2969"/><line style="stroke: #038048; stroke-width: 1.5;" x1="779" x2="779" y1="69.2969" y2="83.2969"/><line style="stroke: #038048; stroke-width: 1.5;" x1="779" x2="784" y1="69.2969" y2="69.2969"/><line style="stroke: #038048; stroke-width: 1.5;" x1="784" x2="784" y1="69.2969" y2="83.2969"/><line style="stroke: #038048; stroke-width: 1.5;" x1="784" x2="854" y1="83.2969" y2="83.2969"/><line style="stroke: #000000; stroke-width: 1.7;" x1="10" x2="859" y1="91.2969" y2="91.2969"/><text fill="#000000" font-family="sans-serif" font-size="12" lengthAdjust="spacingAndGlyphs" textLength="34" x="15" y="121.0996">TIMER</text><line style="stroke: #038048; stroke-width: 1.5;" x1="54" x2="141.5" y1="134.5938" y2="134.5938"/><line style="stroke: #038048; stroke-width: 1.5;" x1="141.5" x2="141.5" y1="120.5938" y2="134.5938"/><line style="stroke: #038048; stroke-width: 1.5;" x1="141.5" x2="146.5" y1="120.5938" y2="120.5938"/><line style="stroke: #038048; stroke-width: 1.5;" x1="146.5" x2="146.5" y1="120.5938" y2="134.5938"/><line style="stroke: #038048; stroke-width: 1.5;" x1="146.5" x2="191.5" y1="134.5938" y2="134.5938"/><line style="stroke: #038048; stroke-width: 1.5;" x1="191.5" x2="191.5" y1="120.5938" y2="134.5938"/><line style="stroke: #038048; stroke-width: 1.5;" x1="191.5" x2="196.5" y1="120.5938" y2="120.5938"/><line style="stroke: #038048; stroke-width: 1.5;" x1="196.5" x2="196.5" y1="120.5938" y2="134.5938"/><line style="stroke: #038048; stroke-width: 1.5;" x1="196.5" x2="241.5" y1="134.5938" y2="134.5938"/><line style="stroke: #038048; stroke-width: 1.5;" x1="241.5" x2="241.5" y1="120.5938" y2="134.5938"/><line style="stroke: #038048; stroke-width: 1.5;" x1="241.5" x2="246.5" y1="120.5938" y2="120.5938"/><line style="stroke: #038048; stroke-width: 1.5;" x1="246.5" x2="246.5" y1="120.5938" y2="134.5938"/><line style="stroke: #038048; stroke-width: 1.5;" x1="246.5" x2="291.5" y1="134.5938" y2="134.5938"/><line style="stroke: #038048; stroke-width: 1.5;" x1="291.5" x2="291.5" y1="120.5938" y2="134.5938"/><line style="stroke: #038048; stroke-width: 1.5;" x1="291.5" x2="296.5" y1="120.5938" y2="120.5938"/><line style="stroke: #038048; stroke-width: 1.5;" x1="296.5" x2="296.5" y1="120.5938" y2="134.5938"/><line style="stroke: #038048; stroke-width: 1.5;" x1="296.5" x2="616.5" y1="134.5938" y2="134.5938"/><line style="stroke: #038048; stroke-width: 1.5;" x1="616.5" x2="616.5" y1="120.5938" y2="134.5938"/><line style="stroke: #038048; stroke-width: 1.5;" x1="616.5" x2="621.5" y1="120.5938" y2="120.5938"/><line style="stroke: #038048; stroke-width: 1.5;" x1="621.5" x2="621.5" y1="120.5938" y2="134.5938"/><line style="stroke: #038048; stroke-width: 1.5;" x1="621.5" x2="666.5" y1="134.5938" y2="134.5938"/><line style="stroke: #038048; stroke-width: 1.5;" x1="666.5" x2="666.5" y1="120.5938" y2="134.5938"/><line style="stroke: #038048; stroke-width: 1.5;" x1="666.5" x2="671.5" y1="120.5938" y2="120.5938"/><line style="stroke: #038048; stroke-width: 1.5;" x1="671.5" x2="671.5" y1="120.5938" y2="134.5938"/><line style="stroke: #038048; stroke-width: 1.5;" x1="671.5" x2="716.5" y1="134.5938" y2="134.5938"/><line style="stroke: #038048; stroke-width: 1.5;" x1="716.5" x2="716.5" y1="120.5938" y2="134.5938"/><line style="stroke: #038048; stroke-width: 1.5;" x1="716.5" x2="721.5" y1="120.5938" y2="120.5938"/><line style="stroke: #038048; stroke-width: 1.5;" x1="721.5" x2="721.5" y1="120.5938" y2="134.5938"/><line style="stroke: #038048; stroke-width: 1.5;" x1="721.5" x2="766.5" y1="134.5938" y2="134.5938"/><line style="stroke: #038048; stroke-width: 1.5;" x1="766.5" x2="766.5" y1="120.5938" y2="134.5938"/><line style="stroke: #038048; stroke-width: 1.5;" x1="766.5" x2="771.5" y1="120.5938" y2="120.5938"/><line style="stroke: #038048; stroke-width: 1.5;" x1="771.5" x2="771.5" y1="120.5938" y2="134.5938"/><line style="stroke: #038048; stroke-width: 1.5;" x1="771.5" x2="854" y1="134.5938" y2="134.5938"/><line style="stroke: #FF0000; stroke-width: 1.5;" x1="109" x2="141.5" y1="112.5938" y2="112.5938"/><polygon fill="#FF0000" points="116.5175,109.8576,116.5175,115.3299,109,112.5938" style="stroke: #FF0000; stroke-width: 1.5;"/><polygon fill="#FF0000" points="133.9825,115.3299,133.9825,109.8576,141.5,112.5938" style="stroke: #FF0000; stroke-width: 1.5;"/><text fill="#000000" font-family="Serif" font-size="14" lengthAdjust="spacingAndGlyphs" textLength="22" x="114.25" y="104.292">3/4</text><line style="stroke: #FF0000; stroke-width: 1.5;" x1="159" x2="191.5" y1="112.5938" y2="112.5938"/><polygon fill="#FF0000" points="166.5175,109.8576,166.5175,115.3299,159,112.5938" style="stroke: #FF0000; stroke-width: 1.5;"/><polygon fill="#FF0000" points="183.9825,115.3299,183.9825,109.8576,191.5,112.5938" style="stroke: #FF0000; stroke-width: 1.5;"/><text fill="#000000" font-family="Serif" font-size="14" lengthAdjust="spacingAndGlyphs" textLength="22" x="164.25" y="104.292">3/4</text><line style="stroke: #FF0000; stroke-width: 1.5;" x1="209" x2="241.5" y1="112.5938" y2="112.5938"/><polygon fill="#FF0000" points="216.5175,109.8576,216.5175,115.3299,209,112.5938" style="stroke: #FF0000; stroke-width: 1.5;"/><polygon fill="#FF0000" points="233.9825,115.3299,233.9825,109.8576,241.5,112.5938" style="stroke: #FF0000; stroke-width: 1.5;"/><text fill="#000000" font-family="Serif" font-size="14" lengthAdjust="spacingAndGlyphs" textLength="22" x="214.25" y="104.292">3/4</text><line style="stroke: #FF0000; stroke-width: 1.5;" x1="259" x2="291.5" y1="112.5938" y2="112.5938"/><polygon fill="#FF0000" points="266.5175,109.8576,266.5175,115.3299,259,112.5938" style="stroke: #FF0000; stroke-width: 1.5;"/><polygon fill="#FF0000" points="283.9825,115.3299,283.9825,109.8576,291.5,112.5938" style="stroke: #FF0000; stroke-width: 1.5;"/><text fill="#000000" font-family="Serif" font-size="14" lengthAdjust="spacingAndGlyphs" textLength="22" x="264.25" y="104.292">3/4</text><line style="stroke: #FF0000; stroke-width: 1.5;" x1="584" x2="616.5" y1="112.5938" y2="112.5938"/><polygon fill="#FF0000" points="591.5175,109.8576,591.5175,115.3299,584,112.5938" style="stroke: #FF0000; stroke-width: 1.5;"/><polygon fill="#FF0000" points="608.9825,115.3299,608.9825,109.8576,616.5,112.5938" style="stroke: #FF0000; stroke-width: 1.5;"/><text fill="#000000" font-family="Serif" font-size="14" lengthAdjust="spacingAndGlyphs" textLength="22" x="589.25" y="104.292">3/4</text><line style="stroke: #FF0000; stroke-width: 1.5;" x1="634" x2="666.5" y1="112.5938" y2="112.5938"/><polygon fill="#FF0000" points="641.5175,109.8576,641.5175,115.3299,634,112.5938" style="stroke: #FF0000; stroke-width: 1.5;"/><polygon fill="#FF0000" points="658.9825,115.3299,658.9825,109.8576,666.5,112.5938" style="stroke: #FF0000; stroke-width: 1.5;"/><text fill="#000000" font-family="Serif" font-size="14" lengthAdjust="spacingAndGlyphs" textLength="22" x="639.25" y="104.292">3/4</text><line style="stroke: #FF0000; stroke-width: 1.5;" x1="684" x2="716.5" y1="112.5938" y2="112.5938"/><polygon fill="#FF0000" points="691.5175,109.8576,691.5175,115.3299,684,112.5938" style="stroke: #FF0000; stroke-width: 1.5;"/><polygon fill="#FF0000" points="708.9825,115.3299,708.9825,109.8576,716.5,112.5938" style="stroke: #FF0000; stroke-width: 1.5;"/><text fill="#000000" font-family="Serif" font-size="14" lengthAdjust="spacingAndGlyphs" textLength="22" x="689.25" y="104.292">3/4</text><line style="stroke: #FF0000; stroke-width: 1.5;" x1="734" x2="766.5" y1="112.5938" y2="112.5938"/><polygon fill="#FF0000" points="741.5175,109.8576,741.5175,115.3299,734,112.5938" style="stroke: #FF0000; stroke-width: 1.5;"/><polygon fill="#FF0000" points="758.9825,115.3299,758.9825,109.8576,766.5,112.5938" style="stroke: #FF0000; stroke-width: 1.5;"/><text fill="#000000" font-family="Serif" font-size="14" lengthAdjust="spacingAndGlyphs" textLength="22" x="739.25" y="104.292">3/4</text><line style="stroke: #000000; stroke-width: 2.0;" x1="54" x2="54" y1="142.5938" y2="147.5938"/><line style="stroke: #000000; stroke-width: 2.0;" x1="104" x2="104" y1="142.5938" y2="147.5938"/><line style="stroke: #000000; stroke-width: 2.0;" x1="154" x2="154" y1="142.5938" y2="147.5938"/><line style="stroke: #000000; stroke-width: 2.0;" x1="204" x2="204" y1="142.5938" y2="147.5938"/><line style="stroke: #000000; stroke-width: 2.0;" x1="254" x2="254" y1="142.5938" y2="147.5938"/><line style="stroke: #000000; stroke-width: 2.0;" x1="304" x2="304" y1="142.5938" y2="147.5938"/><line style="stroke: #000000; stroke-width: 2.0;" x1="354" x2="354" y1="142.5938" y2="147.5938"/><line style="stroke: #000000; stroke-width: 2.0;" x1="404" x2="404" y1="142.5938" y2="147.5938"/><line style="stroke: #000000; stroke-width: 2.0;" x1="454" x2="454" y1="142.5938" y2="147.5938"/><line style="stroke: #000000; stroke-width: 2.0;" x1="504" x2="504" y1="142.5938" y2="147.5938"/><line style="stroke: #000000; stroke-width: 2.0;" x1="554" x2="554" y1="142.5938" y2="147.5938"/><line style="stroke: #000000; stroke-width: 2.0;" x1="604" x2="604" y1="142.5938" y2="147.5938"/><line style="stroke: #000000; stroke-width: 2.0;" x1="654" x2="654" y1="142.5938" y2="147.5938"/><line style="stroke: #000000; stroke-width: 2.0;" x1="704" x2="704" y1="142.5938" y2="147.5938"/><line style="stroke: #000000; stroke-width: 2.0;" x1="754" x2="754" y1="142.5938" y2="147.5938"/><line style="stroke: #000000; stroke-width: 2.0;" x1="804" x2="804" y1="142.5938" y2="147.5938"/><line style="stroke: #000000; stroke-width: 2.0;" x1="854" x2="854" y1="142.5938" y2="147.5938"/><line style="stroke: #000000; stroke-width: 2.0;" x1="54" x2="854" y1="142.5938" y2="142.5938"/><text fill="#000000" font-family="sans-serif" font-size="12" lengthAdjust="spacingAndGlyphs" textLength="12" x="48" y="159.7324">-1</text><text fill="#000000" font-family="sans-serif" font-size="12" lengthAdjust="spacingAndGlyphs" textLength="8" x="100" y="159.7324">0</text><text fill="#000000" font-family="sans-serif" font-size="12" lengthAdjust="spacingAndGlyphs" textLength="7" x="150.5" y="159.7324">1</text><text fill="#000000" font-family="sans-serif" font-size="12" lengthAdjust="spacingAndGlyphs" textLength="8" x="200" y="159.7324">2</text><text fill="#000000" font-family="sans-serif" font-size="12" lengthAdjust="spacingAndGlyphs" textLength="8" x="250" y="159.7324">3</text><text fill="#000000" font-family="sans-serif" font-size="12" lengthAdjust="spacingAndGlyphs" textLength="8" x="300" y="159.7324">4</text><text fill="#000000" font-family="sans-serif" font-size="12" lengthAdjust="spacingAndGlyphs" textLength="8" x="550" y="159.7324">9</text><text fill="#000000" font-family="sans-serif" font-size="12" lengthAdjust="spacingAndGlyphs" textLength="15" x="596.5" y="159.7324">10</text><text fill="#000000" font-family="sans-serif" font-size="12" lengthAdjust="spacingAndGlyphs" textLength="14" x="647" y="159.7324">11</text><text fill="#000000" font-family="sans-serif" font-size="12" lengthAdjust="spacingAndGlyphs" textLength="15" x="696.5" y="159.7324">12</text><text fill="#000000" font-family="sans-serif" font-size="12" lengthAdjust="spacingAndGlyphs" textLength="15" x="746.5" y="159.7324">13</text><text fill="#000000" font-family="sans-serif" font-size="12" lengthAdjust="spacingAndGlyphs" textLength="15" x="796.5" y="159.7324">14</text><line style="stroke: #0000FF; stroke-width: 1.0;" x1="144" x2="144" y1="120.5938" y2="53.2969"/><polygon fill="#0000FF" points="146.7362,60.8144,141.2638,60.8144,144,53.2969" style="stroke: #0000FF; stroke-width: 1.0;"/><line style="stroke: #0000FF; stroke-width: 1.0;" x1="194" x2="194" y1="120.5938" y2="53.2969"/><polygon fill="#0000FF" points="196.7362,60.8144,191.2638,60.8144,194,53.2969" style="stroke: #0000FF; stroke-width: 1.0;"/><line style="stroke: #0000FF; stroke-width: 1.0;" x1="244" x2="244" y1="120.5938" y2="53.2969"/><polygon fill="#0000FF" points="246.7362,60.8144,241.2638,60.8144,244,53.2969" style="stroke: #0000FF; stroke-width: 1.0;"/><line style="stroke: #0000FF; stroke-width: 1.0;" x1="294" x2="294" y1="120.5938" y2="53.2969"/><polygon fill="#0000FF" points="296.7362,60.8144,291.2638,60.8144,294,53.2969" style="stroke: #0000FF; stroke-width: 1.0;"/><line style="stroke: #0000FF; stroke-width: 1.0;" x1="619" x2="619" y1="120.5938" y2="53.2969"/><polygon fill="#0000FF" points="621.7362,60.8144,616.2638,60.8144,619,53.2969" style="stroke: #0000FF; stroke-width: 1.0;"/><line style="stroke: #0000FF; stroke-width: 1.0;" x1="669" x2="669" y1="120.5938" y2="53.2969"/><polygon fill="#0000FF" points="671.7362,60.8144,666.2638,60.8144,669,53.2969" style="stroke: #0000FF; stroke-width: 1.0;"/><line style="stroke: #0000FF; stroke-width: 1.0;" x1="719" x2="719" y1="120.5938" y2="53.2969"/><polygon fill="#0000FF" points="721.7362,60.8144,716.2638,60.8144,719,53.2969" style="stroke: #0000FF; stroke-width: 1.0;"/><line style="stroke: #0000FF; stroke-width: 1.0;" x1="769" x2="769" y1="120.5938" y2="53.2969"/><polygon fill="#0000FF" points="771.7362,60.8144,766.2638,60.8144,769,53.2969" style="stroke: #0000FF; stroke-width: 1.0;"/><line style="stroke: #0000FF; stroke-width: 1.0;" x1="104" x2="104" y1="83.2969" y2="120.5938"/><polygon fill="#0000FF" points="101.2638,113.0762,106.7362,113.0762,104,120.5938" style="stroke: #0000FF; stroke-width: 1.0;"/><line style="stroke: #0000FF; stroke-width: 1.0;" x1="154" x2="154" y1="83.2969" y2="120.5938"/><polygon fill="#0000FF" points="151.2638,113.0762,156.7362,113.0762,154,120.5938" style="stroke: #0000FF; stroke-width: 1.0;"/><line style="stroke: #0000FF; stroke-width: 1.0;" x1="204" x2="204" y1="83.2969" y2="120.5938"/><polygon fill="#0000FF" points="201.2638,113.0762,206.7362,113.0762,204,120.5938" style="stroke: #0000FF; stroke-width: 1.0;"/><line style="stroke: #0000FF; stroke-width: 1.0;" x1="254" x2="254" y1="83.2969" y2="120.5938"/><polygon fill="#0000FF" points="251.2638,113.0762,256.7362,113.0762,254,120.5938" style="stroke: #0000FF; stroke-width: 1.0;"/><line style="stroke: #0000FF; stroke-width: 1.0;" x1="579" x2="579" y1="83.2969" y2="120.5938"/><polygon fill="#0000FF" points="576.2638,113.0762,581.7362,113.0762,579,120.5938" style="stroke: #0000FF; stroke-width: 1.0;"/><line style="stroke: #0000FF; stroke-width: 1.0;" x1="629" x2="629" y1="83.2969" y2="120.5938"/><polygon fill="#0000FF" points="626.2638,113.0762,631.7362,113.0762,629,120.5938" style="stroke: #0000FF; stroke-width: 1.0;"/><line style="stroke: #0000FF; stroke-width: 1.0;" x1="679" x2="679" y1="83.2969" y2="120.5938"/><polygon fill="#0000FF" points="676.2638,113.0762,681.7362,113.0762,679,120.5938" style="stroke: #0000FF; stroke-width: 1.0;"/><line style="stroke: #0000FF; stroke-width: 1.0;" x1="729" x2="729" y1="83.2969" y2="120.5938"/><polygon fill="#0000FF" points="726.2638,113.0762,731.7362,113.0762,729,120.5938" style="stroke: #0000FF; stroke-width: 1.0;"/><!--MD5=[c1bff2af9a1e841fe87c7f624ce7612b]
@startuml
binary "UART" as MA
binary "INT" as INT
binary "TIMER" as TM
@MA
-1 is 1
0 is 0
+0.5 is 1
+0.5 is 0
+0.5 is 0
+0.5 is 1
+0.5 is 0
+0.5 is 1
+0.5 is 0
+0.5 is 1
+0.5 is 1 #stop
+5 is 0  #start
+0.5 is 0
+0.5 is 1
+0.5 is 0
+0.5 is 1
+0.5 is 1
+0.5 is 0
+0.5 is 0
+0.5 is 1
+0.5 is 1


MA@0<->@0.5 : START
MA@4.5<->@5 : STOP

MA@0.6<->@4.4 : LSb

MA@9.5<->@10 : START
MA@14<->@14.5 : STOP

MA@10.1<->@13.9 : MSb

@INT
0 is 1
+0.1 is 0
+0.9 is 1
+0.1 is 0
+0.9 is 1
+0.1 is 0
+0.9 is 1
+0.1 is 0

+0.9 is 1
+0.1 is 0

+5.4 is 1
+0.1 is 0
+0.9 is 1
+0.1 is 0
+0.9 is 1
+0.1 is 0
+0.9 is 1
+0.1 is 0
+0.9 is 1
+0.1 is 0

@TM
0.75 is 1
+0.1 is 0
+0.9 is 1
+0.1 is 0
+0.9 is 1
+0.1 is 0
+0.9 is 1
+0.1 is 0

+6.4 is 1
+0.1 is 0
+0.9 is 1
+0.1 is 0
+0.9 is 1
+0.1 is 0
+0.9 is 1
+0.1 is 0

TM@0.1<->@0.75:3/4
TM@1.1<->@1.75:3/4
TM@2.1<->@2.75:3/4
TM@3.1<->@3.75:3/4

@0.8
TM -> MA
@1.8
TM -> MA
@2.8
TM -> MA
@3.8
TM -> MA

TM@9.6<->@10.25:3/4
TM@10.6<->@11.25:3/4
TM@11.6<->@12.25:3/4
TM@12.6<->@13.25:3/4

@10.3
TM -> MA
@11.3
TM -> MA
@12.3
TM -> MA
@13.3
TM -> MA

@0
INT -> TM
@1
INT -> TM
@2
INT -> TM
@3
INT -> TM

@9.5
INT -> TM
@10.5
INT -> TM
@11.5
INT -> TM
@12.5
INT -> TM
@enduml

PlantUML version 1.2020.20beta7(Unknown compile time)
(GPL source distribution)
Java Runtime: Java(TM) SE Runtime Environment
JVM: Java HotSpot(TM) 64-Bit Server VM
Default Encoding: UTF-8
Language: en
Country: US
--></g></svg>