<?xml version="1.0" encoding="UTF-8" standalone="no"?><svg xmlns="http://www.w3.org/2000/svg" xmlns:xlink="http://www.w3.org/1999/xlink" contentScriptType="application/ecmascript" contentStyleType="text/css" height="105px" preserveAspectRatio="none" style="width:1323px;height:105px;" version="1.1" viewBox="0 0 1323 105" width="1323px" zoomAndPan="magnify"><defs/><g><line style="stroke: #000000; stroke-width: 1.7;" x1="10" x2="10" y1="10" y2="75.2656"/><line style="stroke: #000000; stroke-width: 1.7;" x1="1306" x2="1306" y1="10" y2="75.2656"/><rect fill="#ADD8E6" height="65.2656" style="stroke: none; stroke-width: 1.0;" width="500" x="101" y="10"/><rect fill="#ADD8E6" height="65.2656" style="stroke: none; stroke-width: 1.0;" width="500" x="801" y="10"/><line style="stroke: #AAAAAA; stroke-width: 0.5; stroke-dasharray: 3.0,5.0;" x1="51" x2="51" y1="10" y2="75.2656"/><line style="stroke: #AAAAAA; stroke-width: 0.5; stroke-dasharray: 3.0,5.0;" x1="101" x2="101" y1="10" y2="75.2656"/><line style="stroke: #AAAAAA; stroke-width: 0.5; stroke-dasharray: 3.0,5.0;" x1="151" x2="151" y1="10" y2="75.2656"/><line style="stroke: #AAAAAA; stroke-width: 0.5; stroke-dasharray: 3.0,5.0;" x1="201" x2="201" y1="10" y2="75.2656"/><line style="stroke: #AAAAAA; stroke-width: 0.5; stroke-dasharray: 3.0,5.0;" x1="251" x2="251" y1="10" y2="75.2656"/><line style="stroke: #AAAAAA; stroke-width: 0.5; stroke-dasharray: 3.0,5.0;" x1="301" x2="301" y1="10" y2="75.2656"/><line style="stroke: #AAAAAA; stroke-width: 0.5; stroke-dasharray: 3.0,5.0;" x1="351" x2="351" y1="10" y2="75.2656"/><line style="stroke: #AAAAAA; stroke-width: 0.5; stroke-dasharray: 3.0,5.0;" x1="401" x2="401" y1="10" y2="75.2656"/><line style="stroke: #AAAAAA; stroke-width: 0.5; stroke-dasharray: 3.0,5.0;" x1="451" x2="451" y1="10" y2="75.2656"/><line style="stroke: #AAAAAA; stroke-width: 0.5; stroke-dasharray: 3.0,5.0;" x1="501" x2="501" y1="10" y2="75.2656"/><line style="stroke: #AAAAAA; stroke-width: 0.5; stroke-dasharray: 3.0,5.0;" x1="551" x2="551" y1="10" y2="75.2656"/><line style="stroke: #AAAAAA; stroke-width: 0.5; stroke-dasharray: 3.0,5.0;" x1="601" x2="601" y1="10" y2="75.2656"/><line style="stroke: #AAAAAA; stroke-width: 0.5; stroke-dasharray: 3.0,5.0;" x1="651" x2="651" y1="10" y2="75.2656"/><line style="stroke: #AAAAAA; stroke-width: 0.5; stroke-dasharray: 3.0,5.0;" x1="701" x2="701" y1="10" y2="75.2656"/><line style="stroke: #AAAAAA; stroke-width: 0.5; stroke-dasharray: 3.0,5.0;" x1="751" x2="751" y1="10" y2="75.2656"/><line style="stroke: #AAAAAA; stroke-width: 0.5; stroke-dasharray: 3.0,5.0;" x1="801" x2="801" y1="10" y2="75.2656"/><line style="stroke: #AAAAAA; stroke-width: 0.5; stroke-dasharray: 3.0,5.0;" x1="851" x2="851" y1="10" y2="75.2656"/><line style="stroke: #AAAAAA; stroke-width: 0.5; stroke-dasharray: 3.0,5.0;" x1="901" x2="901" y1="10" y2="75.2656"/><line style="stroke: #AAAAAA; stroke-width: 0.5; stroke-dasharray: 3.0,5.0;" x1="951" x2="951" y1="10" y2="75.2656"/><line style="stroke: #AAAAAA; stroke-width: 0.5; stroke-dasharray: 3.0,5.0;" x1="1001" x2="1001" y1="10" y2="75.2656"/><line style="stroke: #AAAAAA; stroke-width: 0.5; stroke-dasharray: 3.0,5.0;" x1="1051" x2="1051" y1="10" y2="75.2656"/><line style="stroke: #AAAAAA; stroke-width: 0.5; stroke-dasharray: 3.0,5.0;" x1="1101" x2="1101" y1="10" y2="75.2656"/><line style="stroke: #AAAAAA; stroke-width: 0.5; stroke-dasharray: 3.0,5.0;" x1="1151" x2="1151" y1="10" y2="75.2656"/><line style="stroke: #AAAAAA; stroke-width: 0.5; stroke-dasharray: 3.0,5.0;" x1="1201" x2="1201" y1="10" y2="75.2656"/><line style="stroke: #AAAAAA; stroke-width: 0.5; stroke-dasharray: 3.0,5.0;" x1="1251" x2="1251" y1="10" y2="75.2656"/><line style="stroke: #AAAAAA; stroke-width: 0.5; stroke-dasharray: 3.0,5.0;" x1="1301" x2="1301" y1="10" y2="75.2656"/><line style="stroke: #000000; stroke-width: 1.7;" x1="10" x2="1306" y1="10" y2="10"/><text fill="#000000" font-family="sans-serif" font-size="12" lengthAdjust="spacingAndGlyphs" textLength="31" x="15" y="39.8027">UART</text><line style="stroke: #038048; stroke-width: 1.5;" x1="51" x2="51" y1="67.2656" y2="67.2656"/><line style="stroke: #038048; stroke-width: 1.5;" x1="51" x2="51" y1="53.2656" y2="67.2656"/><line style="stroke: #038048; stroke-width: 1.5;" x1="51" x2="101" y1="53.2656" y2="53.2656"/><line style="stroke: #038048; stroke-width: 1.5;" x1="101" x2="101" y1="53.2656" y2="67.2656"/><line style="stroke: #038048; stroke-width: 1.5;" x1="101" x2="151" y1="67.2656" y2="67.2656"/><line style="stroke: #038048; stroke-width: 1.5;" x1="151" x2="151" y1="53.2656" y2="67.2656"/><line style="stroke: #038048; stroke-width: 1.5;" x1="151" x2="201" y1="53.2656" y2="53.2656"/><line style="stroke: #038048; stroke-width: 1.5;" x1="201" x2="201" y1="53.2656" y2="67.2656"/><line style="stroke: #038048; stroke-width: 1.5;" x1="201" x2="251" y1="67.2656" y2="67.2656"/><line style="stroke: #038048; stroke-width: 1.5;" x1="251" x2="301" y1="67.2656" y2="67.2656"/><line style="stroke: #038048; stroke-width: 1.5;" x1="301" x2="301" y1="53.2656" y2="67.2656"/><line style="stroke: #038048; stroke-width: 1.5;" x1="301" x2="351" y1="53.2656" y2="53.2656"/><line style="stroke: #038048; stroke-width: 1.5;" x1="351" x2="351" y1="53.2656" y2="67.2656"/><line style="stroke: #038048; stroke-width: 1.5;" x1="351" x2="401" y1="67.2656" y2="67.2656"/><line style="stroke: #038048; stroke-width: 1.5;" x1="401" x2="401" y1="53.2656" y2="67.2656"/><line style="stroke: #038048; stroke-width: 1.5;" x1="401" x2="451" y1="53.2656" y2="53.2656"/><line style="stroke: #038048; stroke-width: 1.5;" x1="451" x2="451" y1="53.2656" y2="67.2656"/><line style="stroke: #038048; stroke-width: 1.5;" x1="451" x2="501" y1="67.2656" y2="67.2656"/><line style="stroke: #038048; stroke-width: 1.5;" x1="501" x2="501" y1="53.2656" y2="67.2656"/><line style="stroke: #038048; stroke-width: 1.5;" x1="501" x2="551" y1="53.2656" y2="53.2656"/><line style="stroke: #038048; stroke-width: 1.5;" x1="551" x2="801" y1="53.2656" y2="53.2656"/><line style="stroke: #038048; stroke-width: 1.5;" x1="801" x2="801" y1="53.2656" y2="67.2656"/><line style="stroke: #038048; stroke-width: 1.5;" x1="801" x2="851" y1="67.2656" y2="67.2656"/><line style="stroke: #038048; stroke-width: 1.5;" x1="851" x2="901" y1="67.2656" y2="67.2656"/><line style="stroke: #038048; stroke-width: 1.5;" x1="901" x2="901" y1="53.2656" y2="67.2656"/><line style="stroke: #038048; stroke-width: 1.5;" x1="901" x2="951" y1="53.2656" y2="53.2656"/><line style="stroke: #038048; stroke-width: 1.5;" x1="951" x2="951" y1="53.2656" y2="67.2656"/><line style="stroke: #038048; stroke-width: 1.5;" x1="951" x2="1001" y1="67.2656" y2="67.2656"/><line style="stroke: #038048; stroke-width: 1.5;" x1="1001" x2="1001" y1="53.2656" y2="67.2656"/><line style="stroke: #038048; stroke-width: 1.5;" x1="1001" x2="1051" y1="53.2656" y2="53.2656"/><line style="stroke: #038048; stroke-width: 1.5;" x1="1051" x2="1101" y1="53.2656" y2="53.2656"/><line style="stroke: #038048; stroke-width: 1.5;" x1="1101" x2="1101" y1="53.2656" y2="67.2656"/><line style="stroke: #038048; stroke-width: 1.5;" x1="1101" x2="1151" y1="67.2656" y2="67.2656"/><line style="stroke: #038048; stroke-width: 1.5;" x1="1151" x2="1201" y1="67.2656" y2="67.2656"/><line style="stroke: #038048; stroke-width: 1.5;" x1="1201" x2="1201" y1="53.2656" y2="67.2656"/><line style="stroke: #038048; stroke-width: 1.5;" x1="1201" x2="1251" y1="53.2656" y2="53.2656"/><line style="stroke: #038048; stroke-width: 1.5;" x1="1251" x2="1301" y1="53.2656" y2="53.2656"/><line style="stroke: #FF0000; stroke-width: 1.5;" x1="101" x2="151" y1="45.2656" y2="45.2656"/><polygon fill="#FF0000" points="108.5175,42.5295,108.5175,48.0018,101,45.2656" style="stroke: #FF0000; stroke-width: 1.5;"/><polygon fill="#FF0000" points="143.4825,48.0018,143.4825,42.5295,151,45.2656" style="stroke: #FF0000; stroke-width: 1.5;"/><text fill="#000000" font-family="Serif" font-size="14" lengthAdjust="spacingAndGlyphs" textLength="52" x="100" y="36.9639">START</text><line style="stroke: #FF0000; stroke-width: 1.5;" x1="551" x2="601" y1="45.2656" y2="45.2656"/><polygon fill="#FF0000" points="558.5175,42.5295,558.5175,48.0018,551,45.2656" style="stroke: #FF0000; stroke-width: 1.5;"/><polygon fill="#FF0000" points="593.4825,48.0018,593.4825,42.5295,601,45.2656" style="stroke: #FF0000; stroke-width: 1.5;"/><text fill="#000000" font-family="Serif" font-size="14" lengthAdjust="spacingAndGlyphs" textLength="41" x="555.5" y="36.9639">STOP</text><line style="stroke: #FF0000; stroke-width: 1.5;" x1="151" x2="551" y1="45.2656" y2="45.2656"/><polygon fill="#FF0000" points="158.5175,42.5295,158.5175,48.0018,151,45.2656" style="stroke: #FF0000; stroke-width: 1.5;"/><polygon fill="#FF0000" points="543.4825,48.0018,543.4825,42.5295,551,45.2656" style="stroke: #FF0000; stroke-width: 1.5;"/><text fill="#000000" font-family="Serif" font-size="14" lengthAdjust="spacingAndGlyphs" textLength="29" x="336.5" y="36.9639">LSb</text><line style="stroke: #FF0000; stroke-width: 1.5;" x1="801" x2="851" y1="45.2656" y2="45.2656"/><polygon fill="#FF0000" points="808.5175,42.5295,808.5175,48.0018,801,45.2656" style="stroke: #FF0000; stroke-width: 1.5;"/><polygon fill="#FF0000" points="843.4825,48.0018,843.4825,42.5295,851,45.2656" style="stroke: #FF0000; stroke-width: 1.5;"/><text fill="#000000" font-family="Serif" font-size="14" lengthAdjust="spacingAndGlyphs" textLength="52" x="800" y="36.9639">START</text><line style="stroke: #FF0000; stroke-width: 1.5;" x1="1251" x2="1301" y1="45.2656" y2="45.2656"/><polygon fill="#FF0000" points="1258.5175,42.5295,1258.5175,48.0018,1251,45.2656" style="stroke: #FF0000; stroke-width: 1.5;"/><polygon fill="#FF0000" points="1293.4825,48.0018,1293.4825,42.5295,1301,45.2656" style="stroke: #FF0000; stroke-width: 1.5;"/><text fill="#000000" font-family="Serif" font-size="14" lengthAdjust="spacingAndGlyphs" textLength="41" x="1255.5" y="36.9639">STOP</text><line style="stroke: #FF0000; stroke-width: 1.5;" x1="851" x2="1251" y1="45.2656" y2="45.2656"/><polygon fill="#FF0000" points="858.5175,42.5295,858.5175,48.0018,851,45.2656" style="stroke: #FF0000; stroke-width: 1.5;"/><polygon fill="#FF0000" points="1243.4825,48.0018,1243.4825,42.5295,1251,45.2656" style="stroke: #FF0000; stroke-width: 1.5;"/><text fill="#000000" font-family="Serif" font-size="14" lengthAdjust="spacingAndGlyphs" textLength="33" x="1034.5" y="36.9639">MSb</text><line style="stroke: #000000; stroke-width: 2.0;" x1="51" x2="51" y1="75.2656" y2="80.2656"/><line style="stroke: #000000; stroke-width: 2.0;" x1="101" x2="101" y1="75.2656" y2="80.2656"/><line style="stroke: #000000; stroke-width: 2.0;" x1="151" x2="151" y1="75.2656" y2="80.2656"/><line style="stroke: #000000; stroke-width: 2.0;" x1="201" x2="201" y1="75.2656" y2="80.2656"/><line style="stroke: #000000; stroke-width: 2.0;" x1="251" x2="251" y1="75.2656" y2="80.2656"/><line style="stroke: #000000; stroke-width: 2.0;" x1="301" x2="301" y1="75.2656" y2="80.2656"/><line style="stroke: #000000; stroke-width: 2.0;" x1="351" x2="351" y1="75.2656" y2="80.2656"/><line style="stroke: #000000; stroke-width: 2.0;" x1="401" x2="401" y1="75.2656" y2="80.2656"/><line style="stroke: #000000; stroke-width: 2.0;" x1="451" x2="451" y1="75.2656" y2="80.2656"/><line style="stroke: #000000; stroke-width: 2.0;" x1="501" x2="501" y1="75.2656" y2="80.2656"/><line style="stroke: #000000; stroke-width: 2.0;" x1="551" x2="551" y1="75.2656" y2="80.2656"/><line style="stroke: #000000; stroke-width: 2.0;" x1="601" x2="601" y1="75.2656" y2="80.2656"/><line style="stroke: #000000; stroke-width: 2.0;" x1="651" x2="651" y1="75.2656" y2="80.2656"/><line style="stroke: #000000; stroke-width: 2.0;" x1="701" x2="701" y1="75.2656" y2="80.2656"/><line style="stroke: #000000; stroke-width: 2.0;" x1="751" x2="751" y1="75.2656" y2="80.2656"/><line style="stroke: #000000; stroke-width: 2.0;" x1="801" x2="801" y1="75.2656" y2="80.2656"/><line style="stroke: #000000; stroke-width: 2.0;" x1="851" x2="851" y1="75.2656" y2="80.2656"/><line style="stroke: #000000; stroke-width: 2.0;" x1="901" x2="901" y1="75.2656" y2="80.2656"/><line style="stroke: #000000; stroke-width: 2.0;" x1="951" x2="951" y1="75.2656" y2="80.2656"/><line style="stroke: #000000; stroke-width: 2.0;" x1="1001" x2="1001" y1="75.2656" y2="80.2656"/><line style="stroke: #000000; stroke-width: 2.0;" x1="1051" x2="1051" y1="75.2656" y2="80.2656"/><line style="stroke: #000000; stroke-width: 2.0;" x1="1101" x2="1101" y1="75.2656" y2="80.2656"/><line style="stroke: #000000; stroke-width: 2.0;" x1="1151" x2="1151" y1="75.2656" y2="80.2656"/><line style="stroke: #000000; stroke-width: 2.0;" x1="1201" x2="1201" y1="75.2656" y2="80.2656"/><line style="stroke: #000000; stroke-width: 2.0;" x1="1251" x2="1251" y1="75.2656" y2="80.2656"/><line style="stroke: #000000; stroke-width: 2.0;" x1="1301" x2="1301" y1="75.2656" y2="80.2656"/><line style="stroke: #000000; stroke-width: 2.0;" x1="51" x2="1301" y1="75.2656" y2="75.2656"/><text fill="#000000" font-family="sans-serif" font-size="12" lengthAdjust="spacingAndGlyphs" textLength="12" x="45" y="92.4043">-1</text><text fill="#000000" font-family="sans-serif" font-size="12" lengthAdjust="spacingAndGlyphs" textLength="8" x="97" y="92.4043">0</text><text fill="#000000" font-family="sans-serif" font-size="12" lengthAdjust="spacingAndGlyphs" textLength="7" x="147.5" y="92.4043">1</text><text fill="#000000" font-family="sans-serif" font-size="12" lengthAdjust="spacingAndGlyphs" textLength="8" x="197" y="92.4043">2</text><text fill="#000000" font-family="sans-serif" font-size="12" lengthAdjust="spacingAndGlyphs" textLength="8" x="247" y="92.4043">3</text><text fill="#000000" font-family="sans-serif" font-size="12" lengthAdjust="spacingAndGlyphs" textLength="8" x="297" y="92.4043">4</text><text fill="#000000" font-family="sans-serif" font-size="12" lengthAdjust="spacingAndGlyphs" textLength="8" x="347" y="92.4043">5</text><text fill="#000000" font-family="sans-serif" font-size="12" lengthAdjust="spacingAndGlyphs" textLength="8" x="397" y="92.4043">6</text><text fill="#000000" font-family="sans-serif" font-size="12" lengthAdjust="spacingAndGlyphs" textLength="8" x="447" y="92.4043">7</text><text fill="#000000" font-family="sans-serif" font-size="12" lengthAdjust="spacingAndGlyphs" textLength="8" x="497" y="92.4043">8</text><text fill="#000000" font-family="sans-serif" font-size="12" lengthAdjust="spacingAndGlyphs" textLength="8" x="547" y="92.4043">9</text><text fill="#000000" font-family="sans-serif" font-size="12" lengthAdjust="spacingAndGlyphs" textLength="15" x="793.5" y="92.4043">14</text><text fill="#000000" font-family="sans-serif" font-size="12" lengthAdjust="spacingAndGlyphs" textLength="15" x="843.5" y="92.4043">15</text><text fill="#000000" font-family="sans-serif" font-size="12" lengthAdjust="spacingAndGlyphs" textLength="15" x="893.5" y="92.4043">16</text><text fill="#000000" font-family="sans-serif" font-size="12" lengthAdjust="spacingAndGlyphs" textLength="15" x="943.5" y="92.4043">17</text><text fill="#000000" font-family="sans-serif" font-size="12" lengthAdjust="spacingAndGlyphs" textLength="15" x="993.5" y="92.4043">18</text><text fill="#000000" font-family="sans-serif" font-size="12" lengthAdjust="spacingAndGlyphs" textLength="15" x="1043.5" y="92.4043">19</text><text fill="#000000" font-family="sans-serif" font-size="12" lengthAdjust="spacingAndGlyphs" textLength="16" x="1093" y="92.4043">20</text><text fill="#000000" font-family="sans-serif" font-size="12" lengthAdjust="spacingAndGlyphs" textLength="15" x="1143.5" y="92.4043">21</text><text fill="#000000" font-family="sans-serif" font-size="12" lengthAdjust="spacingAndGlyphs" textLength="16" x="1193" y="92.4043">22</text><text fill="#000000" font-family="sans-serif" font-size="12" lengthAdjust="spacingAndGlyphs" textLength="16" x="1243" y="92.4043">23</text><line style="stroke: #696969; stroke-width: 2.0; stroke-dasharray: 4.0,4.0;" x1="101" x2="101" y1="10" y2="75.2656"/><line style="stroke: #696969; stroke-width: 2.0; stroke-dasharray: 4.0,4.0;" x1="601" x2="601" y1="10" y2="75.2656"/><text fill="#000000" font-family="sans-serif" font-size="12" lengthAdjust="spacingAndGlyphs" textLength="73" x="104" y="23.1387">UART r치mec</text><line style="stroke: #696969; stroke-width: 2.0; stroke-dasharray: 4.0,4.0;" x1="801" x2="801" y1="10" y2="75.2656"/><line style="stroke: #696969; stroke-width: 2.0; stroke-dasharray: 4.0,4.0;" x1="1301" x2="1301" y1="10" y2="75.2656"/><text fill="#000000" font-family="sans-serif" font-size="12" lengthAdjust="spacingAndGlyphs" textLength="73" x="804" y="23.1387">UART r치mec</text><!--MD5=[79a18154a134b11f4599fba97a38e334]
@startuml
binary "UART" as MA

@MA
-1 is 1
0 is 0
+1 is 1
+1 is 0
+1 is 0
+1 is 1
+1 is 0
+1 is 1
+1 is 0
+1 is 1
+1 is 1 #stop
+5 is 0  #start
+1 is 0
+1 is 1
+1 is 0
+1 is 1
+1 is 1
+1 is 0
+1 is 0
+1 is 1
+1 is 1


 MA@0<->@1 : START
 MA@9<->@10 : STOP

 MA@1<->@9 : LSb

 MA@14<->@15 : START
 MA@23<->@24 : STOP

 MA@15<->@23 : MSb

highlight 0 to 10 #lightBlue;line:DimGrey : UART r치mec
highlight 14 to 24 #lightBlue;line:DimGrey : UART r치mec
@enduml

PlantUML version 1.2020.20beta7(Unknown compile time)
(GPL source distribution)
Java Runtime: Java(TM) SE Runtime Environment
JVM: Java HotSpot(TM) 64-Bit Server VM
Default Encoding: UTF-8
Language: en
Country: US
--></g></svg>